<?xml version="1.0" encoding="utf-8"?>
<!-- Generator: Adobe Illustrator 24.1.2, SVG Export Plug-In . SVG Version: 6.00 Build 0)  -->
<svg version="1.1" id="Layer_1" xmlns="http://www.w3.org/2000/svg" xmlns:xlink="http://www.w3.org/1999/xlink" x="0px" y="0px"
	 viewBox="0 0 16 16" style="enable-background:new 0 0 16 16;" xml:space="preserve">
<style type="text/css">
	.st0{stroke:#000000;stroke-width:0.2;stroke-miterlimit:10;}
</style>
<path class="st0" d="M2.9,10.3L2.9,10.3c-0.3,0-0.4-0.2-0.4-0.5L5,1.4c0.1-0.4,0.6-0.3,0.7,0l0.9,3.5c0.1,0.2-0.1,0.4-0.4,0.4h0
	C6,5.4,5.8,5.3,5.8,5.1L5.6,4.3C5.5,4,5,4,4.9,4.3L4.5,5.4C4.5,5.7,4.7,5.9,4.9,5.9h3.9c0.2,0,0.4,0.2,0.4,0.4v4.3
	c0,0.2,0.2,0.4,0.4,0.4h0.2c0.2,0,0.4-0.2,0.4-0.4V1.7c0-0.2-0.2-0.4-0.4-0.4h-1c-0.2,0-0.4-0.2-0.4-0.4V0.8c0-0.2,0.2-0.4,0.4-0.4
	h4.9c0.2,0,0.4,0.2,0.4,0.4v0.2c0,0.2-0.2,0.4-0.4,0.4h-2.4c-0.2,0-0.4,0.2-0.4,0.4v0.6c0,0.2,0.2,0.4,0.4,0.4h0.6
	c0.2,0,0.4,0.2,0.4,0.4v0c0,0.2-0.2,0.4-0.4,0.4h-0.6c-0.2,0-0.4,0.2-0.4,0.4v6.9c0,0.2,0.2,0.4,0.4,0.4h2.4c0.2,0,0.4,0.2,0.4,0.4
	v0c0,0.2-0.2,0.4-0.4,0.4H9.5c-0.2,0-0.3,0.1-0.4,0.3c-0.1,0.8-0.4,3-2.5,3c-1.9,0-2.5-1.7-2.7-2.5C3.9,12.3,4.1,12,4.3,12h0.1
	c0.2,0,0.3,0.1,0.4,0.3c0.1,0.5,0.4,1.5,1.2,1.8c1.1,0.5,1.7-0.5,1.7-0.5s0.7-0.9,0.7-2.2V7c0-0.2-0.2-0.4-0.4-0.4H7.4
	C7.2,6.6,7,6.8,7,7.1l0.7,2.7c0.1,0.2-0.1,0.4-0.4,0.4H7.3c-0.2,0-0.3-0.1-0.4-0.3L6.2,6.9c0-0.2-0.2-0.3-0.4-0.3H4.5
	c-0.2,0-0.3,0.1-0.3,0.3L3.2,10C3.2,10.2,3.1,10.3,2.9,10.3z"/>
</svg>
